<?xml version="1.0" ?>

<!DOCTYPE svg  PUBLIC '-//W3C//DTD SVG 1.1//EN'  'http://www.w3.org/Graphics/SVG/1.1/DTD/svg11.dtd'>

<!-- Uploaded to: SVG Repo, www.svgrepo.com, Generator: SVG Repo Mixer Tools -->
<svg width="800px" height="800px" viewBox="0 0 32 32" style="fill-rule:evenodd;clip-rule:evenodd;stroke-linecap:round;stroke-linejoin:round;stroke-miterlimit:1.5;" version="1.1" xml:space="preserve" xmlns="http://www.w3.org/2000/svg" xmlns:serif="http://www.serif.com/" xmlns:xlink="http://www.w3.org/1999/xlink">

<g id="Icon">

<path d="M12.01,10.012l-0.002,-0c-1.105,-0 -2.002,0.897 -2.002,2.001c0,1.105 0.897,2.002 2.002,2.002c1.105,0 2.002,-0.897 2.002,-2.002l-0,-7.122c-0,-0 6.001,-0.75 6.001,-0.75l0.002,3.867c-1.105,0 -2.001,0.897 -2.001,2.002c-0,1.105 0.896,2.002 2.001,2.002c1.105,-0 2.002,-0.897 2.002,-2.002l-0.005,-7.003c-0,-0.286 -0.124,-0.559 -0.339,-0.749c-0.215,-0.189 -0.501,-0.278 -0.785,-0.242l-8,1c-0.501,0.062 -0.876,0.488 -0.876,0.992l-0,6.004Z"/>

<path d="M16,17l0,10.988" style="fill:none;stroke:#000000;stroke-width:2px;"/>

<path d="M15,26.248l-3.235,-3.883c-0.354,-0.424 -0.985,-0.481 -1.409,-0.128c-0.424,0.354 -0.481,0.985 -0.128,1.409l5,6c0.19,0.228 0.472,0.36 0.769,0.36c0.296,-0 0.578,-0.132 0.768,-0.36l5,-6c0.353,-0.424 0.296,-1.055 -0.128,-1.409c-0.424,-0.353 -1.055,-0.296 -1.409,0.128l-3.228,3.874l0,-9.239c0,-0.552 -0.448,-1 -1,-1c-0.552,-0 -1,0.448 -1,1l-0,9.248Z"/>

</g>

</svg>