<?xml version="1.0" ?>
<!DOCTYPE svg  PUBLIC '-//W3C//DTD SVG 1.1//EN'  'http://www.w3.org/Graphics/SVG/1.1/DTD/svg11.dtd'>
<!-- Uploaded to: SVG Repo, www.svgrepo.com, Generator: SVG Repo Mixer Tools -->
<svg fill="#000000" width="800px" height="800px" viewBox="0 0 32 32" style="fill-rule:evenodd;clip-rule:evenodd;stroke-linejoin:round;stroke-miterlimit:2;" version="1.1" xml:space="preserve" xmlns="http://www.w3.org/2000/svg" xmlns:serif="http://www.serif.com/" xmlns:xlink="http://www.w3.org/1999/xlink">
<g id="Icon">
<path d="M27.996,6.919c0,-0.796 -0.316,-1.559 -0.879,-2.121c-0.562,-0.563 -1.325,-0.879 -2.121,-0.879c-4.184,-0 -13.816,-0 -18,-0c-0.796,-0 -1.559,0.316 -2.121,0.879c-0.563,0.562 -0.879,1.325 -0.879,2.121c0,4.184 0,13.816 0,18c0,0.796 0.316,1.559 0.879,2.121c0.562,0.563 1.325,0.879 2.121,0.879c4.184,-0 13.816,-0 18,-0c0.796,-0 1.559,-0.316 2.121,-0.879c0.563,-0.562 0.879,-1.325 0.879,-2.121l0,-18Zm-2,-0l0,18c0,0.265 -0.105,0.52 -0.293,0.707c-0.187,0.188 -0.442,0.293 -0.707,0.293l-18,-0c-0.265,-0 -0.52,-0.105 -0.707,-0.293c-0.188,-0.187 -0.293,-0.442 -0.293,-0.707l0,-18c0,-0.265 0.105,-0.52 0.293,-0.707c0.187,-0.188 0.442,-0.293 0.707,-0.293l18,-0c0.265,-0 0.52,0.105 0.707,0.293c0.188,0.187 0.293,0.442 0.293,0.707Z"/>
<path d="M11,18.011c-1.656,-0 -3,1.344 -3,3c0,1.655 1.344,3 3,3c1.656,-0 3,-1.345 3,-3c0,-1.656 -1.344,-3 -3,-3Zm0,2c0.552,-0 1,0.448 1,1c0,0.552 -0.448,1 -1,1c-0.552,-0 -1,-0.448 -1,-1c0,-0.552 0.448,-1 1,-1Z"/>
<path d="M20.992,18.011c-1.656,-0 -3,1.344 -3,3c0,1.655 1.344,3 3,3c1.656,-0 3,-1.345 3,-3c0,-1.656 -1.344,-3 -3,-3Zm0,2c0.552,-0 1,0.448 1,1c0,0.552 -0.448,1 -1,1c-0.552,-0 -1,-0.448 -1,-1c0,-0.552 0.448,-1 1,-1Z"/>
<path d="M14.985,12.031c-0.549,0.003 -0.994,0.449 -0.995,0.999c-0,0.55 0.445,0.998 0.995,1.001l-0,0.997c-0,0.552 0.448,1 1,1c0.552,0 1,-0.448 1,-1l-0,-0.994l0.004,-0c0.552,0.001 1.001,-0.447 1.001,-0.999c0.001,-0.552 -0.446,-1 -0.998,-1.001l-0.007,-0l-0,-3.013c-0,-0.552 -0.448,-1 -1,-1c-0.552,-0 -1,0.448 -1,1l-0,3.01Z"/>
<path d="M20.987,10.015l-0.005,0c-0.552,-0 -1,0.447 -1.001,0.999c-0.001,0.552 0.447,1.001 0.999,1.001l0.007,0l-0,3.013c-0,0.552 0.448,1 1,1c0.552,0 1,-0.448 1,-1l-0,-3.01c0.548,-0.003 0.993,-0.449 0.994,-0.999c0.001,-0.55 -0.444,-0.998 -0.994,-1.001l-0,-0.997c-0,-0.552 -0.448,-1 -1,-1c-0.552,-0 -1,0.448 -1,1l-0,0.994Z"/>
<path d="M9.006,10.015l-0.005,0c-0.552,-0 -1,0.447 -1.001,0.999c-0.001,0.552 0.447,1.001 0.999,1.001l0.007,0l-0,3.013c-0,0.552 0.448,1 1,1c0.552,0 1,-0.448 1,-1l-0,-3.01c0.548,-0.003 0.993,-0.449 0.994,-0.999c0.001,-0.55 -0.444,-0.998 -0.994,-1.001l-0,-0.997c-0,-0.552 -0.448,-1 -1,-1c-0.552,-0 -1,0.448 -1,1l-0,0.994Z"/>
</g>
</svg>